# xmcd CD database file
#
# Track frame offsets:
#	150
#	23430
#	42035
#
# Disc length: 753 seconds
#
# Revision: 0
# Processed by: cddbd v1.5PL3 Copyright (c) Steve Scherf et al.
# Submitted via: CDex 1.50beta10
#
DISCID=1302ef03
DTITLE=遊佐未森 - ココア
DYEAR=2000
DGENRE=JPop
TTITLE0=ココア
TTITLE1=see you in spring
TTITLE2=ペチカ
EXTD=YEAR: 2000
EXTT0=
EXTT1=
EXTT2=
PLAYORDER=
